<?xml version="1.0" encoding="UTF-8" standalone="no"?>
<svg
   viewBox="0 0 18 18"
   version="1.1"
   id="svg955"
   sodipodi:docname="github.svg"
   inkscape:version="1.2.2 (b0a84865, 2022-12-01)"
   width="18"
   height="18"
   xmlns:inkscape="http://www.inkscape.org/namespaces/inkscape"
   xmlns:sodipodi="http://sodipodi.sourceforge.net/DTD/sodipodi-0.dtd"
   xmlns="http://www.w3.org/2000/svg"
   xmlns:svg="http://www.w3.org/2000/svg">
  <defs
     id="defs959" />
  <sodipodi:namedview
     id="namedview957"
     pagecolor="#ffffff"
     bordercolor="#999999"
     borderopacity="1"
     inkscape:showpageshadow="0"
     inkscape:pageopacity="0"
     inkscape:pagecheckerboard="0"
     inkscape:deskcolor="#d1d1d1"
     showgrid="false"
     inkscape:zoom="5.3939646"
     inkscape:cx="17.241492"
     inkscape:cy="6.1179489"
     inkscape:window-width="1309"
     inkscape:window-height="456"
     inkscape:window-x="0"
     inkscape:window-y="38"
     inkscape:window-maximized="0"
     inkscape:current-layer="svg955" />
  <!--! Font Awesome Pro 6.4.0 by @fontawesome - https://fontawesome.com License - https://fontawesome.com/license (Commercial License) Copyright 2023 Fonticons, Inc. -->
  <path
     d="m 6.0205645,14.356317 c 0,0.07258 -0.083468,0.130645 -0.1887097,0.130645 -0.119758,0.01089 -0.2032258,-0.04718 -0.2032258,-0.130645 0,-0.07258 0.083468,-0.130646 0.1887097,-0.130646 0.108871,-0.01089 0.2032258,0.04718 0.2032258,0.130646 z M 4.8919355,14.19301 c -0.025403,0.07258 0.047177,0.156049 0.1560484,0.177823 0.094355,0.03629 0.2032258,0 0.225,-0.07258 0.021774,-0.07258 -0.047177,-0.156048 -0.1560484,-0.18871 -0.094355,-0.0254 -0.1995968,0.01089 -0.225,0.08347 z m 1.6040322,-0.06169 c -0.1052419,0.0254 -0.1778225,0.09435 -0.1669354,0.177822 0.010887,0.07258 0.1052419,0.119758 0.2141129,0.09436 0.1052419,-0.0254 0.1778225,-0.09436 0.1669354,-0.166935 -0.010887,-0.06895 -0.1088709,-0.116129 -0.2141129,-0.105242 z M 8.883871,0.2248647 C 3.8504032,0.2248647 0,4.0462357 0,9.0797037 0,13.1043 2.5330645,16.548252 6.1512097,17.760349 c 0.4645161,0.08347 0.6278226,-0.203226 0.6278226,-0.439113 0,-0.225 -0.010887,-1.466129 -0.010887,-2.228226 0,0 -2.5403226,0.544355 -3.0737904,-1.081451 0,0 -0.4137096,-1.056049 -1.0088709,-1.328226 0,0 -0.8310484,-0.569758 0.058064,-0.558871 0,0 0.903629,0.07258 1.4008064,0.93629 0.7947581,1.400807 2.1266129,0.997984 2.6455646,0.758468 0.083468,-0.580645 0.3193548,-0.983468 0.5806451,-1.222984 -2.028629,-0.225 -4.0754032,-0.518952 -4.0754032,-4.0100813 0,-0.997984 0.2758064,-1.49879 0.8564516,-2.1375 C 4.0572581,6.2127677 3.7487903,5.2401877 4.2459677,3.9845417 5.0044355,3.7486547 6.75,4.9643807 6.75,4.9643807 c 0.7258065,-0.203226 1.5060484,-0.308468 2.2790323,-0.308468 0.7729838,0 1.5532257,0.105242 2.2790327,0.308468 0,0 1.745564,-1.219355 2.504032,-0.979839 0.497177,1.259275 0.188709,2.228226 0.09436,2.464113 0.580645,0.642339 0.93629,1.143145 0.93629,2.1375 0,3.5020163 -2.1375,3.7814523 -4.166129,4.0100813 0.333871,0.286694 0.616935,0.831048 0.616935,1.683871 0,1.222984 -0.01089,2.73629 -0.01089,3.033871 0,0.235887 0.166936,0.522581 0.627823,0.439113 C 15.539516,16.548252 18,13.1043 18,9.0797037 18,4.0462357 13.917339,0.2248647 8.883871,0.2248647 Z M 3.5274194,12.741397 c -0.047177,0.03629 -0.03629,0.119758 0.025403,0.18871 0.058064,0.05806 0.1415322,0.08347 0.1887097,0.03629 0.047177,-0.03629 0.03629,-0.119758 -0.025403,-0.188709 -0.058064,-0.05806 -0.1415322,-0.08347 -0.1887096,-0.03629 z M 3.1354839,12.447446 c -0.025403,0.04718 0.010887,0.105242 0.083468,0.141532 0.058064,0.03629 0.1306452,0.0254 0.1560484,-0.0254 0.025403,-0.04718 -0.010887,-0.105242 -0.083468,-0.141533 -0.072581,-0.02177 -0.1306452,-0.01089 -0.1560484,0.0254 z m 1.1758064,1.291935 c -0.058064,0.04718 -0.03629,0.156049 0.047177,0.225 0.083468,0.08347 0.1887097,0.09436 0.2358871,0.03629 0.047178,-0.04718 0.025403,-0.156048 -0.047177,-0.225 -0.079839,-0.08347 -0.1887097,-0.09435 -0.2358871,-0.03629 z M 3.8975806,13.205913 c -0.058064,0.03629 -0.058064,0.130646 0,0.214113 0.058065,0.08347 0.1560484,0.119758 0.2032259,0.08347 0.058065,-0.04718 0.058065,-0.141532 0,-0.225 C 4.05,13.195026 3.9556452,13.158736 3.8975806,13.205913 Z"
     id="path953"
     style="fill:#666666;stroke-width:0.0362903" />
</svg>
