<?xml version="1.0" encoding="UTF-8" standalone="no"?>
<svg
   viewBox="0 0 18 18"
   version="1.1"
   id="svg1342"
   sodipodi:docname="linkedin-in.svg"
   inkscape:version="1.2.2 (b0a84865, 2022-12-01)"
   width="18"
   height="18"
   xmlns:inkscape="http://www.inkscape.org/namespaces/inkscape"
   xmlns:sodipodi="http://sodipodi.sourceforge.net/DTD/sodipodi-0.dtd"
   xmlns="http://www.w3.org/2000/svg"
   xmlns:svg="http://www.w3.org/2000/svg">
  <defs
     id="defs1346" />
  <sodipodi:namedview
     id="namedview1344"
     pagecolor="#ffffff"
     bordercolor="#999999"
     borderopacity="1"
     inkscape:showpageshadow="0"
     inkscape:pageopacity="0"
     inkscape:pagecheckerboard="0"
     inkscape:deskcolor="#d1d1d1"
     showgrid="false"
     inkscape:zoom="0.4609375"
     inkscape:cx="-110.64407"
     inkscape:cy="256"
     inkscape:window-width="1309"
     inkscape:window-height="456"
     inkscape:window-x="0"
     inkscape:window-y="38"
     inkscape:window-maximized="0"
     inkscape:current-layer="svg1342" />
  <!--! Font Awesome Pro 6.4.0 by @fontawesome - https://fontawesome.com License - https://fontawesome.com/license (Commercial License) Copyright 2023 Fonticons, Inc. -->
  <path
     d="M 4.0291071,17.999567 H 0.29732143 V 5.9821561 H 4.0291071 Z M 2.1612054,4.3428704 C 0.96790179,4.3428704 0,3.3544775 0,2.161174 a 2.1612054,2.1612054 0 0 1 4.3224107,0 c 0,1.1933035 -0.9683036,2.1816964 -2.1612053,2.1816964 z M 17.995982,17.999567 h -3.72375 v -5.85 c 0,-1.394196 -0.02813,-3.182143 -1.940223,-3.182143 -1.940223,0 -2.237545,1.514732 -2.237545,3.081697 v 5.950446 H 6.3666964 V 5.9821561 h 3.5791072 v 1.6392857 h 0.052232 C 10.49625,6.6772454 11.713259,5.6808168 13.528929,5.6808168 17.305714,5.6808168 18,8.1678704 18,11.398228 v 6.601339 z"
     id="path1340"
     style="fill:#666666;stroke-width:0.0401786" />
</svg>
