<?xml version="1.0" encoding="UTF-8" standalone="no"?>
<svg
   viewBox="0 0 18 18"
   version="1.1"
   id="svg826"
   sodipodi:docname="linkedin.svg"
   inkscape:version="1.2.2 (b0a84865, 2022-12-01)"
   width="18"
   height="18"
   xmlns:inkscape="http://www.inkscape.org/namespaces/inkscape"
   xmlns:sodipodi="http://sodipodi.sourceforge.net/DTD/sodipodi-0.dtd"
   xmlns="http://www.w3.org/2000/svg"
   xmlns:svg="http://www.w3.org/2000/svg">
  <defs
     id="defs830" />
  <sodipodi:namedview
     id="namedview828"
     pagecolor="#ffffff"
     bordercolor="#999999"
     borderopacity="1"
     inkscape:showpageshadow="0"
     inkscape:pageopacity="0"
     inkscape:pagecheckerboard="0"
     inkscape:deskcolor="#d1d1d1"
     showgrid="false"
     inkscape:zoom="0.4609375"
     inkscape:cx="-110.64407"
     inkscape:cy="256"
     inkscape:window-width="1309"
     inkscape:window-height="456"
     inkscape:window-x="0"
     inkscape:window-y="38"
     inkscape:window-maximized="0"
     inkscape:current-layer="svg826" />
  <!--! Font Awesome Pro 6.4.0 by @fontawesome - https://fontawesome.com License - https://fontawesome.com/license (Commercial License) Copyright 2023 Fonticons, Inc. -->
  <path
     d="M 16.714286,0 H 1.2816964 C 0.57455357,0 0,0.582589 0,1.297768 V 16.702232 C 0,17.417411 0.57455357,18 1.2816964,18 H 16.714286 C 17.421429,18 18,17.417411 18,16.702232 V 1.297768 C 18,0.582589 17.421429,0 16.714286,0 Z M 5.4401786,15.428571 H 2.7723214 V 6.838393 h 2.671875 v 8.590178 z M 4.10625,5.665179 c -0.8558036,0 -1.546875,-0.69509 -1.546875,-1.546875 0,-0.851786 0.6910714,-1.546875 1.546875,-1.546875 0.8517857,0 1.546875,0.695089 1.546875,1.546875 0,0.855803 -0.6910714,1.546875 -1.546875,1.546875 z m 11.334375,9.763392 H 12.772768 V 11.25 c 0,-0.996429 -0.02009,-2.278125 -1.386161,-2.278125 -1.3901784,0 -1.6031249,1.084821 -1.6031249,2.205804 v 4.250892 H 7.115625 V 6.838393 H 9.675 v 1.173214 h 0.036161 c 0.357589,-0.675 1.229464,-1.386161 2.527232,-1.386161 2.7,0 3.202232,1.779911 3.202232,4.094197 z"
     id="path824"
     style="fill:#666666;stroke-width:0.0401786" />
</svg>
