<?xml version="1.0" encoding="UTF-8" standalone="no"?>
<svg
   viewBox="0 0 18 18"
   version="1.1"
   id="svg1213"
   sodipodi:docname="mastodon.svg"
   inkscape:version="1.2.2 (b0a84865, 2022-12-01)"
   width="18"
   height="18"
   xmlns:inkscape="http://www.inkscape.org/namespaces/inkscape"
   xmlns:sodipodi="http://sodipodi.sourceforge.net/DTD/sodipodi-0.dtd"
   xmlns="http://www.w3.org/2000/svg"
   xmlns:svg="http://www.w3.org/2000/svg">
  <defs
     id="defs1217" />
  <sodipodi:namedview
     id="namedview1215"
     pagecolor="#ffffff"
     bordercolor="#999999"
     borderopacity="1"
     inkscape:showpageshadow="0"
     inkscape:pageopacity="0"
     inkscape:pagecheckerboard="0"
     inkscape:deskcolor="#d1d1d1"
     showgrid="false"
     inkscape:zoom="0.4609375"
     inkscape:cx="-110.64407"
     inkscape:cy="256"
     inkscape:window-width="1309"
     inkscape:window-height="456"
     inkscape:window-x="0"
     inkscape:window-y="38"
     inkscape:window-maximized="0"
     inkscape:current-layer="svg1213" />
  <!--! Font Awesome Pro 6.4.0 by @fontawesome - https://fontawesome.com License - https://fontawesome.com/license (Commercial License) Copyright 2023 Fonticons, Inc. -->
  <path
     d="m 17.395322,5.9098297 c 0,-3.904732 -2.559367,-5.04963797 -2.559367,-5.04963797 -2.511562,-1.15294 -9.1817438,-1.140889 -11.6692028,0 0,0 -2.55976904,1.14490597 -2.55976904,5.04963797 0,4.6479173 -0.265136,10.4206533 4.24338304,11.6137663 1.627374,0.429842 3.025766,0.522238 4.150988,0.457962 2.0411458,-0.112482 3.1864538,-0.727116 3.1864538,-0.727116 l -0.06829,-1.482352 c 0,0 -1.45865,0.457963 -3.0980748,0.405739 -1.623357,-0.05624 -3.334288,-0.176757 -3.600629,-2.169295 a 4.1192512,4.1192512 0 0 1 -0.03616,-0.558393 c 3.43994,0.839597 6.3733098,0.365566 7.1807698,0.269153 2.25446,-0.269153 4.218074,-1.659109 4.468347,-2.928549 C 17.427458,8.7901727 17.39532,5.9098297 17.39532,5.9098297 Z M 14.377591,10.939382 H 12.504364 V 6.3517237 c 0,-1.996556 -2.5710168,-2.072883 -2.5710168,0.277187 v 2.510759 h -1.861175 v -2.51116 c 0,-2.35007 -2.571017,-2.273743 -2.571017,-0.277188 V 10.93898 h -1.877244 c 0,-4.9050183 -0.208895,-5.9414593 0.739569,-7.0301243 1.040458,-1.160975 3.20654,-1.237302 4.171073,0.24505 l 0.465997,0.783357 0.465997,-0.783357 c 0.9685498,-1.490387 3.1382468,-1.397991 4.1710728,-0.24505 0.952482,1.096699 0.739168,2.129123 0.739168,7.0301243 z"
     id="path1211"
     style="fill:#666666;stroke-width:0.0401721" />
</svg>
