<?xml version="1.0" encoding="UTF-8" standalone="no"?>
<svg
   viewBox="0 0 18 18"
   version="1.1"
   id="svg134"
   sodipodi:docname="researchgate.svg"
   inkscape:version="1.2.2 (b0a84865, 2022-12-01)"
   width="18"
   height="18"
   xmlns:inkscape="http://www.inkscape.org/namespaces/inkscape"
   xmlns:sodipodi="http://sodipodi.sourceforge.net/DTD/sodipodi-0.dtd"
   xmlns="http://www.w3.org/2000/svg"
   xmlns:svg="http://www.w3.org/2000/svg">
  <defs
     id="defs138" />
  <sodipodi:namedview
     id="namedview136"
     pagecolor="#ffffff"
     bordercolor="#999999"
     borderopacity="1"
     inkscape:showpageshadow="0"
     inkscape:pageopacity="0"
     inkscape:pagecheckerboard="0"
     inkscape:deskcolor="#d1d1d1"
     showgrid="false"
     inkscape:zoom="0.4609375"
     inkscape:cx="-136.67797"
     inkscape:cy="-8.6779661"
     inkscape:window-width="1309"
     inkscape:window-height="456"
     inkscape:window-x="0"
     inkscape:window-y="38"
     inkscape:window-maximized="0"
     inkscape:current-layer="svg134" />
  <!--! Font Awesome Pro 6.4.0 by @fontawesome - https://fontawesome.com License - https://fontawesome.com/license (Commercial License) Copyright 2023 Fonticons, Inc. -->
  <path
     d="M 0,0 V 18 H 18 V 0 Z M 10.534821,13.435714 C 10.269643,13.55625 9.2008929,13.676786 8.5258929,12.865179 8.15625,12.439286 7.509375,11.527232 6.8303571,10.309821 c -0.3575892,0 -0.590625,0 -0.8598214,-0.02411 V 12.15 c 0,0.944196 0.2410714,0.851786 1.0366072,0.960268 v 0.325446 c -0.2772322,-0.01205 -0.928125,-0.03214 -1.4303572,-0.03214 -0.5263393,0 -1.0486607,0.02411 -1.35,0.03214 V 13.110268 C 4.8495536,12.99375 5.1107143,13.058036 5.1107143,12.15 V 7.754464 c 0,-0.908035 -0.2571429,-0.84375 -0.8839286,-0.960268 V 6.46875 c 1.0366072,0.04018 2.1334822,-0.02411 2.8486607,-0.02411 1.2736607,0 2.2459822,0.578571 2.2459822,1.832143 0,0.847768 -0.6709822,1.695535 -1.575,1.908482 0.5464285,0.972321 1.2053571,1.832143 1.6955357,2.366518 0.2892857,0.313393 0.6910717,0.590625 1.0928567,0.590625 z m 0.92009,-5.424107 c -0.936161,0 -1.29375,-0.630803 -1.29375,-1.29375 v -1.29375 c 0,-0.490178 0.353571,-1.221428 1.366071,-1.221428 1.0125,0 1.221429,0.719196 1.221429,0.719196 L 12.31875,5.211161 c 0,0 -0.220982,-0.502232 -0.791518,-0.502232 -0.317411,0 -0.791518,0.293303 -0.791518,0.791517 v 1.076786 c 0,0.538393 0.265179,0.936161 0.719197,0.936161 0.566518,0 0.863839,-0.437947 0.863839,-1.076786 H 11.599554 V 6.006696 h 1.221428 c 0,0.823661 0.188839,2.004911 -1.366071,2.004911 z M 6.7741071,9.807589 c -0.3776785,0 -0.5464285,-0.01205 -0.8035714,-0.03214 V 6.975 C 6.2276786,6.95089 6.5732143,6.95089 6.8745536,6.95089 c 0.9361607,0 1.4946428,0.490178 1.4946428,1.386161 0,0.87991 -0.6026785,1.470535 -1.5950893,1.470535 z"
     id="path132"
     style="fill:#666666;stroke-width:0.0401786" />
</svg>
