<?xml version="1.0" encoding="UTF-8" standalone="no"?>
<svg
   viewBox="0 0 18 18"
   version="1.1"
   id="svg134"
   sodipodi:docname="square-twitter.svg"
   inkscape:version="1.2.2 (b0a84865, 2022-12-01)"
   width="18"
   height="18"
   xmlns:inkscape="http://www.inkscape.org/namespaces/inkscape"
   xmlns:sodipodi="http://sodipodi.sourceforge.net/DTD/sodipodi-0.dtd"
   xmlns="http://www.w3.org/2000/svg"
   xmlns:svg="http://www.w3.org/2000/svg">
  <defs
     id="defs138" />
  <sodipodi:namedview
     id="namedview136"
     pagecolor="#ffffff"
     bordercolor="#999999"
     borderopacity="1"
     inkscape:showpageshadow="0"
     inkscape:pageopacity="0"
     inkscape:pagecheckerboard="0"
     inkscape:deskcolor="#d1d1d1"
     showgrid="false"
     inkscape:zoom="0.4609375"
     inkscape:cx="-110.64407"
     inkscape:cy="256"
     inkscape:window-width="1309"
     inkscape:window-height="456"
     inkscape:window-x="0"
     inkscape:window-y="38"
     inkscape:window-maximized="0"
     inkscape:current-layer="svg134" />
  <!--! Font Awesome Pro 6.4.0 by @fontawesome - https://fontawesome.com License - https://fontawesome.com/license (Commercial License) Copyright 2023 Fonticons, Inc. -->
  <path
     d="M 16.071429,0 H 1.9285714 C 0.86383929,0 0,0.863839 0,1.928571 V 16.071429 C 0,17.136161 0.86383929,18 1.9285714,18 H 16.071429 C 17.136161,18 18,17.136161 18,16.071429 V 1.928571 C 18,0.863839 17.136161,0 16.071429,0 Z m -1.964733,6.380357 c 0.008,0.1125 0.008,0.229018 0.008,0.341518 0,3.483482 -2.651786,7.497321 -7.4973213,7.497321 -1.4946428,0 -2.8808036,-0.433928 -4.0459821,-1.18125 0.2129464,0.02411 0.4178571,0.03214 0.6348214,0.03214 1.2334821,0 2.3665179,-0.417857 3.2705357,-1.125 -1.1571428,-0.02411 -2.1294643,-0.783482 -2.4629464,-1.828125 0.4058036,0.06027 0.7714286,0.06027 1.1892857,-0.04821 C 3.9977679,9.823661 3.09375,8.762946 3.09375,7.48125 V 7.44911 C 3.4433036,7.645985 3.853125,7.766521 4.2830357,7.782592 A 2.629567,2.629567 0 0 1 3.1098214,5.588842 c 0,-0.490178 0.1285715,-0.940178 0.3575893,-1.32991 1.2977679,1.599107 3.2464286,2.64375 5.4321429,2.75625 -0.3736607,-1.787947 0.9642857,-3.238393 2.5714284,-3.238393 0.759375,0 1.442411,0.31741 1.924554,0.831696 0.594643,-0.1125 1.165178,-0.333482 1.671428,-0.634821 -0.196875,0.610714 -0.610714,1.125 -1.157143,1.450446 0.530358,-0.05625 1.044643,-0.204911 1.51875,-0.409821 -0.357589,0.526339 -0.807589,0.99241 -1.321875,1.366071 z"
     id="path132"
     style="fill:#666666;stroke-width:0.0401786" />
</svg>
