<?xml version="1.0" encoding="UTF-8" standalone="no"?>
<svg
   viewBox="0 0 18 18"
   version="1.1"
   id="svg1702"
   sodipodi:docname="twitter.svg"
   inkscape:version="1.2.2 (b0a84865, 2022-12-01)"
   width="18"
   height="18"
   xmlns:inkscape="http://www.inkscape.org/namespaces/inkscape"
   xmlns:sodipodi="http://sodipodi.sourceforge.net/DTD/sodipodi-0.dtd"
   xmlns="http://www.w3.org/2000/svg"
   xmlns:svg="http://www.w3.org/2000/svg">
  <defs
     id="defs1706" />
  <sodipodi:namedview
     id="namedview1704"
     pagecolor="#ffffff"
     bordercolor="#999999"
     borderopacity="1"
     inkscape:showpageshadow="0"
     inkscape:pageopacity="0"
     inkscape:pagecheckerboard="0"
     inkscape:deskcolor="#d1d1d1"
     showgrid="false"
     inkscape:zoom="0.4609375"
     inkscape:cx="-213.69492"
     inkscape:cy="256"
     inkscape:window-width="1512"
     inkscape:window-height="916"
     inkscape:window-x="0"
     inkscape:window-y="38"
     inkscape:window-maximized="0"
     inkscape:current-layer="svg1702" />
  <!--! Font Awesome Pro 6.4.0 by @fontawesome - https://fontawesome.com License - https://fontawesome.com/license (Commercial License) Copyright 2023 Fonticons, Inc. -->
  <path
     d="m 16.149795,5.3337355 c 0.01142,0.159891 0.01142,0.319818 0.01142,0.479709 0,4.8768945 -3.711916,10.4962205 -10.4962202,10.4962205 -2.0901176,0 -4.0317345,-0.605358 -5.6649948,-1.656077 0.296966,0.03424 0.58247103,0.04567 0.89086285,0.04567 1.72459655,0 3.31218875,-0.58247 4.57996325,-1.57613 -1.6218345,-0.03428 -2.9809804,-1.096458 -3.4492635,-2.558401 0.2284462,0.03424 0.4568572,0.05709 0.6967293,0.05709 0.3312083,0 0.6624518,-0.0457 0.9708084,-0.125614 C 1.9987461,10.153534 0.73093645,8.6687735 0.73093645,6.8756225 v -0.04567 c 0.49109955,0.274114 1.06221505,0.445431 1.66750265,0.468248 -0.9936602,-0.662452 -1.644651,-1.793152 -1.644651,-3.072352 0,-0.685268 0.18270775,-1.313443 0.5025254,-1.861672 1.8160032,2.238583 4.5457209,3.700491 7.6066117,3.860418 -0.057094,-0.274114 -0.091371,-0.559619 -0.091371,-0.84516 0,-2.033023 1.6446858,-3.6891 3.6890998,-3.6891 1.06218,0 2.021563,0.445431 2.69544,1.164977 0.833734,-0.159891 1.633225,-0.468283 2.341381,-0.890863 -0.27415,0.856621 -0.856621,1.576167 -1.621835,2.032989 0.742398,-0.07991 1.461943,-0.28554 2.12436,-0.571045 -0.502455,0.730936 -1.130665,1.381927 -1.85021,1.907339 z"
     id="path1700"
     style="fill:#666666;stroke-width:0.0351564" />
</svg>
